<?xml version="1.0" encoding="utf-8"?>
<!-- Generator: Adobe Illustrator 15.0.2, SVG Export Plug-In . SVG Version: 6.00 Build 0)  -->
<!DOCTYPE svg PUBLIC "-//W3C//DTD SVG 1.1//EN" "http://www.w3.org/Graphics/SVG/1.1/DTD/svg11.dtd">
<svg version="1.1" id="Calque_1" xmlns="http://www.w3.org/2000/svg" xmlns:xlink="http://www.w3.org/1999/xlink" x="0px" y="0px"
	 width="512px" height="512px" viewBox="0 0 512 512" enable-background="new 0 0 512 512" xml:space="preserve">
<g>
	<path fill="#4785BA" d="M278.212,125.344c-2.582-1.98-5.567-3.393-9.006-4.183c-3.41-0.79-7.067-1.189-10.937-1.189
		c-3.879,0-7.56,0.399-11.032,1.189c-3.482,0.792-6.5,2.202-9.088,4.183c-2.558,1.987-4.578,4.63-6.074,7.871
		c-1.476,3.259-2.228,7.345-2.228,12.246c0,4.79,0.752,8.847,2.228,12.137c1.496,3.319,3.514,5.985,6.074,7.974
		c2.586,1.98,5.606,3.432,9.088,4.278c3.472,0.848,7.152,1.275,11.032,1.275c3.869,0,7.526-0.428,10.937-1.275
		c3.438-0.845,6.424-2.298,9.006-4.278c2.552-1.988,4.626-4.654,6.146-7.974c1.531-3.29,2.311-7.347,2.311-12.137
		c0-4.899-0.782-8.985-2.311-12.246C282.838,129.974,280.766,127.332,278.212,125.344z"/>
	<rect x="232.078" y="194.916" fill="#4785BA" width="52.212" height="191.303"/>
	<path fill="#4785BA" d="M258.156-0.472C117.016-0.472,2.18,114.385,2.18,255.562c0,141.166,114.836,256.016,255.976,256.016
		c141.17,0,256.025-114.85,256.025-256.016C514.182,114.385,399.326-0.472,258.156-0.472z M258.156,474.61
		c-120.762,0-219.008-98.269-219.008-219.048c0-120.796,98.246-219.066,219.008-219.066c120.784,0,219.054,98.269,219.054,219.066
		C477.21,376.342,378.94,474.61,258.156,474.61z"/>
</g>
</svg>
